<svg xmlns="http://www.w3.org/2000/svg" xml:space="preserve" viewBox="0 0 50 42.4"><path d="m37.5 14.1-.7.2-11.1 6.4v.3l11.1 6.4c.4.2 1 .2 1.4 0L49.3 21v-.3l-11.1-6.4a1.4 1.4 0 0 0-.7-.2zm0 5.8a1.6 1 0 0 1 1.6 1 1.6 1 0 0 1-1.6 1 1.6 1 0 0 1-1.6-1 1.6 1 0 0 1 1.6-1zm-12.4 1.9a.2.2 0 0 0-.1.1v12.8c0 .5.3 1 .7 1.3l11.1 6.4c.1 0 .2 0 .2-.2V29.4c0-.5-.3-1-.7-1.2l-11.1-6.4zm2 3.2a1.6 1 60 0 1 1.5 1 1.6 1 60 0 1 0 1.9 1.6 1 60 0 1-1.7-1 1.6 1 60 0 1 0-1.9 1.6 1 60 0 1 .3 0zm6.6 11.2a1.6 1 60 0 1 1.4 1 1.6 1 60 0 1 0 2 1.6 1 60 0 1-1.7-1 1.6 1 60 0 1 0-1.9 1.6 1 60 0 1 .3 0zm16.2-14.4a.2.2 0 0 0-.1 0l-11.1 6.4c-.4.3-.7.8-.7 1.3v12.8c0 .1.1.2.2 0L49.3 36c.4-.3.7-.7.7-1.2v-13a.1.1 0 0 0-.1 0zm-2 3.2a1 1.6 30 0 1 .2 0 1 1.6 30 0 1 0 2 1 1.6 30 0 1-1.7 1 1 1.6 30 0 1 0-2 1 1.6 30 0 1 1.4-1zm-3.3 5.6a1 1.6 30 0 1 .2 0 1 1.6 30 0 1 0 2 1 1.6 30 0 1-1.6 1 1 1.6 30 0 1 0-2 1 1.6 30 0 1 1.4-1zm-3.3 5.6a1 1.6 30 0 1 .3.1 1 1.6 30 0 1 0 2 1 1.6 30 0 1-1.7.9 1 1.6 30 0 1 0-2 1 1.6 30 0 1 1.4-1zM12.5 0c-.2 0-.5 0-.7.2L.7 6.6c-.1 0-.1.2 0 .2l11.1 6.4c.4.3 1 .3 1.4 0l11.1-6.4c.1 0 .1-.1 0-.2L13.2.2a1.4 1.4 0 0 0-.7-.2zm0 5.8a1.6 1 0 0 1 1.6 1 1.6 1 0 0 1-1.6.9 1.6 1 0 0 1-1.6-1 1.6 1 0 0 1 1.6-1zM.1 7.7a.2.2 0 0 0-.1.1v12.8c0 .5.3 1 .7 1.2l11.1 6.4c.1.1.2 0 .2 0v-13c0-.5-.3-1-.7-1.2L.2 7.7zm2 3.1a1.6 1 60 0 1 1.5 1 1.6 1 60 0 1 0 2 1.6 1 60 0 1-1.7-1A1.6 1 60 0 1 2 11a1.6 1 60 0 1 .3 0zm6.6 11.3a1.6 1 60 0 1 1.4 1 1.6 1 60 0 1 0 2 1.6 1 60 0 1-1.7-1 1.6 1 60 0 1 0-2 1.6 1 60 0 1 .3 0zM24.9 7.7a.2.2 0 0 0-.1 0L13.7 14c-.4.3-.7.7-.7 1.2V28c0 .2.1.2.2.2l11.1-6.4c.4-.3.7-.8.7-1.3V7.7a.1.1 0 0 0-.1 0zm-2 3.1a1 1.6 30 0 1 .2.1 1 1.6 30 0 1 0 2 1 1.6 30 0 1-1.7.9 1 1.6 30 0 1 0-2 1 1.6 30 0 1 1.4-1zm-3.3 5.7a1 1.6 30 0 1 .2 0 1 1.6 30 0 1 0 2 1 1.6 30 0 1-1.6.9 1 1.6 30 0 1 0-2 1 1.6 30 0 1 1.4-1zM16.3 22a1 1.6 30 0 1 .3 0 1 1.6 30 0 1 0 2 1 1.6 30 0 1-1.7 1 1 1.6 30 0 1 0-2 1 1.6 30 0 1 1.4-1z"/></svg>
