<svg xmlns="http://www.w3.org/2000/svg" xml:space="preserve" viewBox="0 0 83.7 118.1"><path fill-opacity=".5" d="M42.5 4.8c-.6 2.7-.2 5.9 0 8.5l-.5 21c-.1 5.1 0 10.2.2 15.3-2.4 4.6-4-4.6-4.5-6.9-.3-2.1-1-4.2-1.5-6.3C34.2 28 32 19.6 31 11c0-1-.6-1.8-1.2-2.5-2.3-2.6-6.8-2-7.5 1.6v3c0 7.1.5 14.2 1.6 21.3l.8 5.2c.7 4.1 3.9 16.9 1.5 25.2-.3 3.8-.6 6 0 9 0 .2-.5 2.6-1.4 2.5-5.7-.7-5.4-12.7-9-16.6-3-4.5-10.3-7.7-15-4.2-3.2 5 4.6 9.4 5 14.8a61 61 0 0 1 6 19c1 5.4 6.5 8 8.7 12.6 4 5.7 8.6 12.7 16.2 13.2 6.3 1.5 12.7 3.1 19.2 3 5.7-.2 15.4 1.5 16.3-6.3.2-1.8.7-3.4 1.2-5.1l.6-2c1.6-4.8 3.5-9.6 3-14.8.2-10.4 2.6-20.5 2.8-31l1.2-7.4.3-1.8 1-6.7.3-2.5c.4-2.4 1-4.7 1-7 0-3.4.4-4.4-.3-5.2-2.4-2.5-4.5-1.5-6 .7a10 10 0 0 0-1.2 2 31 31 0 0 0-1.7 5.4c-1.3 5-.5 5.5-2.4 13.3 0 0-1 3.7-1.9 5.4l.3-7.4c.6-12.2.8-24.5.6-36.7l-.3-2.2c-.5-4-7.4-5.6-8 .2-.7 5.9-1.1 12-1.3 14.3l-.6 4.6c-1 6.8-1 13.7-2.4 20.4-2.3 7.2-5.2-3.3-4.7-6.3v-7.7c.1-3.4-.1-7.5-.2-11-.5-6.4 0-12.7-2.2-18.9l-1-2.4c-.8-1.2-2.2-2-3.7-2-2.5.3-3.4 2.7-4 4.8z"/></svg>
