<svg xmlns="http://www.w3.org/2000/svg" viewBox="0 0 64 64"><path d="M64 36c0 1.2-.6 2-1.3 2h-14c-.8 0-1.3-.8-1.3-2 0-1 .5-1.9 1.2-1.9h14.1c.7 0 1.3.9 1.3 2"/><path d="M49 36.8c0-1 .6-2 1.3-2h13.4c-.2-.4-.6-.7-1-.7h-14c-.8 0-1.3.9-1.3 2 0 1 .5 2 1.2 2h.7c-.2-.4-.3-.8-.3-1.3"/><path d="M61.8 21.8c.6.9.6 2 0 2.3L50 31.7c-.6.4-1.6 0-2.2-1-.6-.9-.6-2 0-2.3l11.8-7.6c.6-.4 1.6 0 2.2 1"/><path d="M49.6 30.5c-.6-1-.6-2 0-2.4L60.8 21c-.4-.3-.9-.3-1.2-.1l-11.8 7.6c-.6.3-.6 1.4 0 2.3.6 1 1.6 1.4 2.2 1l.5-.4c-.3-.1-.7-.4-1-.8"/><path d="M61.8 50.4c.6-.9.6-2 0-2.3L50 40.5c-.6-.4-1.6 0-2.2 1-.6.9-.6 2 0 2.3l11.8 7.6c.6.4 1.6 0 2.2-1"/><path d="M49.6 41.7c-.6 1-.6 2 0 2.4l11.2 7.2c-.4.3-.9.3-1.2.1l-11.8-7.6c-.6-.4-.6-1.4 0-2.3.6-1 1.6-1.4 2.2-1l.5.3c-.3.2-.7.5-1 1"/><path d="M40.8 30.6c.6-.6.5-.8.8-1.3.3-.6.3-1.1.1-1.6a10 10 0 0 1-5.1-5.5 8 8 0 0 1-.3-3c0-.7-.3-1.5-.8-2.3l-.6-.6c.3-.4.7-.9 1-1.7.4-1 .3-4 .2-5.2-.2-2.5-2.6-3.4-5-4.2-.3 0-.5.1-.6.5-1.6 0-3.7.5-4.8.6l-3.6.2c-5 1.9-9.9 1.6-14.2 6-2.3 2.3-4.3 4.8-6.5 7.2H4c.5.1.3 2 .1 2.2-1 2-2.5 3.2-4.1 4.6C4.6 29 6.5 34 8 39.2l2.4 1.6a100.3 100.3 0 0 1 .6 14.9l-.2.4-1.2 2.4h24.8l-1.2-2v-.1c-.4-1.6-.7-5-.8-6.6 2.5.9 3.2 1.2 5.7 1.5 2 .1 2.1-1.8 2.1-2 .4-2 0-3.4.1-5 .1-1 1.1-2.2.8-3a4 4 0 0 0-1.2-1.7c-.3-.3-2.3 0-2.6-.3-1.3-1-.6-.8.2-1.8 1.6-1.3 2.4-1.6 2.8-2.7.3-.6-.7-1-1-1.7-.2-.4.2-1.2.2-1.6l1.3-1"/></svg>
