                <svg xmlns="http://www.w3.org/2000/svg" aria-hidden="true" class="iconify iconify--emojione-monotone"
                    viewBox="0 0 64 64">
                    <path
                        d="M38.5 42.6c-4.7-1.4-3.3-2.6 1-4.3 2.2-.8 1-2.5 1-3.8 0-.6 2.4-.5 2.3-2.9-.2-1.6-3.9-4-4.9-5-.5-.6 1.2-2.3 0-3.7-1.7-1.9-2-5.3-3-7.1 0 0 .8-1.2.2-2C29.9 8 10.6 8.7 5.6 17.3c-5.5 9.7-5.6 23 6 30.2C16.5 50.7 10 62 10 62h20.3c0-2-2.2-8.9 1.7-8.6 3.5.3 7.7.1 7.3-3.7-.1-1.2-.2-2.3.6-3.3s2-2.7-1.5-3.8m4.7-1.8L62 43.3v-5zM58.5 57l2-4.2L43 43.4zm2-28.2-2-4.3L43 38z" />
                </svg>
