<?xml version="1.0" encoding="UTF-8" standalone="no"?>
<!-- Created with Inkscape (http://www.inkscape.org/) -->

<svg
   width="25mm"
   height="25mm"
   viewBox="0 0 25 25"
   version="1.1"
   id="svg1"
   sodipodi:docname="favicon.svg"
   inkscape:version="1.4.2 (ebf0e940d0, 2025-05-08)"
   xmlns:inkscape="http://www.inkscape.org/namespaces/inkscape"
   xmlns:sodipodi="http://sodipodi.sourceforge.net/DTD/sodipodi-0.dtd"
   xmlns="http://www.w3.org/2000/svg"
   xmlns:svg="http://www.w3.org/2000/svg">
  <sodipodi:namedview
     id="namedview1"
     pagecolor="#1c1917"
     bordercolor="#999999"
     borderopacity="1"
     inkscape:showpageshadow="2"
     inkscape:pageopacity="0"
     inkscape:pagecheckerboard="0"
     inkscape:deskcolor="#d1d1d1"
     inkscape:document-units="mm"
     inkscape:zoom="11.313708"
     inkscape:cx="44.503533"
     inkscape:cy="42.24963"
     inkscape:window-width="2516"
     inkscape:window-height="1361"
     inkscape:window-x="0"
     inkscape:window-y="0"
     inkscape:window-maximized="1"
     inkscape:current-layer="layer1"
     inkscape:export-bgcolor="#1c1917ff" />
  <defs
     id="defs1" />
  <g
     inkscape:label="Layer 1"
     inkscape:groupmode="layer"
     id="layer1"
     transform="translate(-39.904613,-87.363866)">
    <path
       style="font-size:16.9333px;line-height:1.2;font-family:'Monsieur La Doulaise';-inkscape-font-specification:'Monsieur La Doulaise';letter-spacing:0px;fill:#ffedd4;stroke-linecap:square;paint-order:fill markers stroke"
       d="m 50.728217,102.40383 c -0.191911,0.59831 -0.287867,1.08373 -0.287867,1.45626 0,0.36125 0.02822,0.66605 0.08467,0.9144 1.286931,-0.77893 2.19004,-1.30951 2.709328,-1.59173 -0.711199,-0.39511 -1.546575,-0.65476 -2.506128,-0.77893 z m 2.827861,0.98213 -2.878661,1.84573 c 0.462843,0.99342 1.518352,1.49013 3.166527,1.49013 0.327377,0 0.699909,-0.0395 1.117598,-0.11853 0.07902,-0.27093 0.118533,-0.51365 0.118533,-0.72814 0,-0.99342 -0.507999,-1.82315 -1.523997,-2.48919 z m 4.910657,-0.0169 c 0,-0.37253 -0.129822,-0.67169 -0.389466,-0.89747 -0.259644,-0.22578 -0.643466,-0.33867 -1.151465,-0.33867 -0.835376,0 -1.857018,0.3556 -3.064927,1.0668 1.207909,0.76765 1.811863,1.71027 1.811863,2.82786 0,0.14676 -0.01693,0.28223 -0.0508,0.4064 0.857954,-0.28222 1.546575,-0.72248 2.065863,-1.32079 0.519288,-0.59831 0.778932,-1.17969 0.778932,-1.74413 z m -9.804381,-6.366925 c 1.162753,0 2.274707,-0.203199 3.33586,-0.609598 1.072443,-0.406399 1.902174,-0.880532 2.489195,-1.422398 0.59831,-0.553154 0.897465,-1.061153 0.897465,-1.523997 0,-0.677332 -0.671688,-1.015998 -2.015063,-1.015998 -1.332086,0 -2.523061,0.457199 -3.572926,1.371598 -1.049865,0.914398 -1.704619,1.969907 -1.964263,3.166527 0.338666,0.02258 0.615243,0.03387 0.829732,0.03387 z m 0.321733,5.283185 c -2.043285,0 -3.618082,0.31609 -4.724391,0.94827 -1.106309,0.63217 -1.659464,1.33773 -1.659464,2.11666 0,0.46285 0.208844,0.84667 0.626533,1.15147 0.428977,0.3048 1.021642,0.4572 1.777996,0.4572 1.207909,0 2.833506,-0.60396 4.876791,-1.81187 -0.169333,-0.37253 -0.254,-0.80715 -0.254,-1.30386 0,-0.508 0.06773,-1.016 0.2032,-1.524 -0.361244,-0.0226 -0.643466,-0.0339 -0.846665,-0.0339 z m 2.878661,-1.21919 c 1.241775,0 2.517417,-0.22578 3.826925,-0.67734 1.309509,-0.451551 2.432751,-0.993415 3.369727,-1.625591 0.948265,-0.643465 1.721552,-1.309509 2.319862,-1.99813 0.609599,-0.688621 0.914398,-1.275642 0.914398,-1.761063 0,-0.643465 -0.54751,-0.965198 -1.64253,-0.965198 -1.09502,0 -2.280351,0.355599 -3.555993,1.066798 -1.264353,0.699909 -2.398884,1.580441 -3.403593,2.641595 -0.99342,1.049865 -1.789285,2.150528 -2.387595,3.301989 0.124177,0.0113 0.310444,0.0169 0.558799,0.0169 z m -2.472262,-11.209847 0.0508,0.253999 c -1.264353,0.214489 -2.331151,0.767643 -3.200394,1.659464 -0.869243,0.89182 -1.303864,1.806218 -1.303864,2.743194 0,0.59831 0.208844,1.117598 0.626532,1.557864 0.428977,0.428977 1.078087,0.711198 1.94733,0.846665 0.29351,-1.275642 0.999064,-2.398884 2.116662,-3.369727 1.128887,-0.970843 2.438395,-1.456264 3.928526,-1.456264 0.699909,0 1.224842,0.118533 1.574797,0.3556 0.361243,0.225777 0.541865,0.530577 0.541865,0.914398 0,0.846665 -0.694265,1.698974 -2.082796,2.556928 -1.377241,0.846665 -3.064927,1.269998 -5.063056,1.269998 -0.338666,0 -0.587021,-0.0056 -0.745066,-0.01693 -0.03387,0.237067 -0.0508,0.468489 -0.0508,0.694266 0,0.745065 0.214489,1.394175 0.643466,1.947329 0.440266,0.541873 1.106309,0.908753 1.998129,1.100663 0.417688,-0.88053 0.982131,-1.738484 1.69333,-2.57386 0.711199,-0.835376 1.518353,-1.59173 2.421462,-2.269063 0.903109,-0.688621 1.913463,-1.241775 3.031061,-1.659463 1.128887,-0.417688 2.274707,-0.626532 3.43746,-0.626532 1.174042,0 1.761063,0.378177 1.761063,1.134532 0,0.530577 -0.316088,1.162753 -0.948265,1.896529 -0.620887,0.722487 -1.428041,1.422397 -2.421462,2.099729 -0.982131,0.677332 -2.167462,1.253068 -3.555993,1.727198 -1.388531,0.46284 -2.760128,0.69426 -4.114792,0.69426 -0.225777,0 -0.39511,-0.006 -0.507999,-0.0169 -0.135466,0.29351 -0.253999,0.58138 -0.355599,0.8636 1.072443,0.14675 1.981196,0.42898 2.726261,0.84667 1.456264,-0.75635 2.681106,-1.13453 3.674526,-1.13453 0.553155,0 0.970843,0.12982 1.253065,0.38946 0.29351,0.24836 0.440265,0.58138 0.440265,0.99907 0,0.63217 -0.304799,1.28693 -0.914398,1.96426 -0.59831,0.66605 -1.405464,1.14582 -2.421462,1.43933 -0.259644,0.84667 -0.903109,1.58609 -1.930396,2.21827 -1.027287,0.64346 -2.24084,0.96519 -3.640659,0.96519 -0.575733,0 -1.185332,-0.0677 -1.828797,-0.2032 l 0.169333,-0.1524 c 0.428977,0.079 0.880532,0.11854 1.354664,0.11854 1.230487,0 2.319862,-0.27093 3.268127,-0.8128 0.948265,-0.53058 1.586086,-1.19098 1.913463,-1.9812 -0.474133,0.079 -0.897465,0.11854 -1.269997,0.11854 -1.704619,0 -2.867373,-0.46849 -3.48826,-1.40547 -1.89653,1.08373 -3.635016,1.6256 -5.215457,1.6256 -0.857954,0 -1.54093,-0.18627 -2.048929,-0.5588 -0.507999,-0.36125 -0.761999,-0.80716 -0.761999,-1.33773 0,-0.83538 0.59831,-1.58045 1.79493,-2.2352 1.207909,-0.65475 2.952039,-0.98213 5.23239,-0.98213 0.180622,0 0.440266,0.0113 0.778932,0.0339 0.124177,-0.36125 0.237066,-0.6604 0.338666,-0.89747 -0.959554,-0.2032 -1.676397,-0.59831 -2.150529,-1.18533 -0.462844,-0.58702 -0.694266,-1.281285 -0.694266,-2.082794 0,-0.29351 0.02258,-0.558798 0.06773,-0.795865 -1.038576,-0.124177 -1.817508,-0.417688 -2.336796,-0.880532 -0.507999,-0.474132 -0.761998,-1.038575 -0.761998,-1.69333 0,-0.970843 0.474132,-1.924752 1.422397,-2.861727 0.959553,-0.948265 2.161818,-1.563509 3.606793,-1.84573 z"
       id="text1"
       aria-label="C"
       sodipodi:nodetypes="ssccssccscscssscscsscccssscccccscscscccccccsscccccccsscccscscscsccsccsscccscccscscccsccsccscscscscccsccsccc" />
  </g>
</svg>
