<svg xmlns="http://www.w3.org/2000/svg" xml:space="preserve" viewBox="0 0 59.9 67.1"><path d="M15.2 0h-1c-4.1.3-7.7 4.5-9.5 8.3a46.3 46.3 0 0 0-1.2 17.4c1.3-2.4 2.6-5.2 3.8-7.8v-.1c-.2-6.7.8-7.9 1.3-8 .5 0-.5.7-.5 6.4 1-1.9 1.9-3.4 2.8-4.2.7-.6 1.8-.8 3-.8s2.8.2 4.4.5l3 .6-.8-8.5v-.4C19.5 2.2 19 .1 15.2 0zm11 1.3c-2.6 0-4 1.5-5 2.2l.1.3.7 8.7 5.4 1c1.7.2 4.4-.4 6.6-.5h.7l-1-7.6s-2.8-3.7-6.3-4a8 8 0 0 0-1.2-.1zm14 3c-2.8 0-4.8.8-5.6 1.2l.9 7.4c.6 0 1.1.1 1.6.3.8.3 1.5 1 1.5 2 .3 3-1.1 5.3-3.3 6.9l-2 10.7v.4l.4.3c.3.3 1 .5 1.7.6 1.4.3 3.2.4 4.4.6a4.7 4.7 0 0 0 4.6-1.5l.2-.3c.3-.3.6-.7.8-1.2a24 24 0 0 0 2.4-8.8c.6-6 .2-12 0-13.9 0 0-3-4.2-6.4-4.6L40 4.3zm12.4 4.5c-1.5 0-3.2.3-4 .5.5 4.6.4 9.2 0 13.7-.4 3.4-1.1 6.7-2.5 9.1a3 3 0 0 1-.9 1.3c3.5 2.8 7 3.2 10.6 1.5l.4-.2c1.7-3.9 3.2-8 3.6-12.2.1-4.9 1-9.8-4.8-13.2a5 5 0 0 0-2.4-.5zM14 12c-1.2 0-2 .2-2.6.6-.9.7-2 2.8-3.2 5.3v.3H8C5.7 24 2.3 29 .1 34.7c-1.4 3.8 11 26 17.3 32 1 1 35.5.5 38.5-3.7 4-4.8 2-18.3.2-27.3-4 1.9-7.8 1.3-11.4-1.6a5.6 5.6 0 0 1-5 1.5l-4.5-.6a6 6 0 0 1-2-.7l-.6-.6-.4.2c-.6.3-1.2.4-2 .6a15 15 0 0 1-3.6.3c-2-.2-3.4-1-4.2-1.9a5 5 0 0 1-1.1-3.3c0-1.6.4-3 .7-3.8h-2.8l-1 4.7c6.8 5 10.8 6.1 13.7 9 3 2.9 4.9 7.5 7.5 19.7v.4l-.7.2v-.4C36 47 34.1 42.7 31.3 40c-2.8-2.7-6.8-3.8-13.8-9.1l-.2-.2 1-5.1h-.7c-1.1-.2-2-.4-2.6-.7-.3 0-.8-.4-1-.7l1.4.2c.4.2 1.2.2 2.3.3l3 .2h2l3.3-.4a21 21 0 0 0 8.5-2.9v-.2h.3c2-1.4 3.1-3.4 3-6.1-.1-.8-.4-1.1-1-1.4-.7-.2-1.7-.2-2.8-.1-2.2.1-4.8.7-6.8.5a56 56 0 0 1-5.7-1h-.3V13a110.2 110.2 0 0 0-7.2-1zm20.4 10.7a22.6 22.6 0 0 1-8.2 2.6l-3.3.3c-.2.6-.8 2.2-.8 3.9 0 1 .2 2 .9 2.8.7.8 1.8 1.4 3.7 1.6a15.6 15.6 0 0 0 5.2-.8c.2 0 .4-.2.5-.3v-.1z" paint-order="fill markers stroke"/></svg>
