<svg xmlns="http://www.w3.org/2000/svg" aria-hidden="true" class="iconify iconify--emojione-monotone" viewBox="0 0 72 62"><path id="second-head" d="M48.5 32.6c-4.7-1.4-3.3-2.6 1-4.3 2.2-.8 1-2.5 1-3.8 0-.6 2.4-.5 2.3-3-.2-1.5-3.9-4-4.9-5-.5-.5 1.2-2.2 0-3.6-1.7-2-2-5.3-3-7.1 0 0 .8-1.2.2-2C40-2 20.6-1.3 15.6 7.3c-5.5 9.7-5.6 23 6 30.2C26.6 40.7 20 52 20 52h20.3c0-2-2.2-9 1.7-8.6 3.5.3 7.7 0 7.3-3.7 0-1.2-.2-2.3.6-3.3s2-2.7-1.5-3.8m4.7-1.8 19 2.5v-5zM68.5 47l2-4.2L53 33.4zm2-28.2-2-4.3L53 28z"/><path d="M36.5 42.6c-4.7-1.4-3.3-2.6 1-4.3 2.2-.8 1-2.5 1-3.8 0-.6 2.4-.5 2.3-3-.2-1.5-3.9-4-4.9-5-.5-.5 1.2-2.2 0-3.6-1.7-2-2-5.3-3-7.1 0 0 .8-1.2.2-2C28 8 8.6 8.7 3.6 17.3c-5.5 9.7-5.6 23 6 30.2C14.6 50.7 8 62 8 62h20.3c0-2-2.2-9 1.7-8.6 3.5.3 7.7 0 7.3-3.7 0-1.2-.2-2.3.6-3.3s2-2.7-1.5-3.8m4.7-1.8 19 2.5v-5zM56.5 57l2-4.2L41 43.4zm2-28.2-2-4.3L41 38z"/></svg>
