<svg xmlns="http://www.w3.org/2000/svg" aria-hidden="true" class="iconify iconify--emojione-monotone" viewBox="0 0 64 64"><path d="M24.8 10c-7.4-.4-16 2-19.2 7.3-5.5 9.7-5.6 23 6 30.2C16.5 50.7 10 62 10 62h20.3c0-2-2.2-8.9 1.7-8.6 3.5.3 7.7.1 7.3-3.7-.1-1.2-.2-2.3.6-3.3s2-2.7-1.5-3.8h.1c-4.7-1.4-3.3-2.6 1-4.3 2.2-.8 1-2.5 1-3.8 0-.6 2.4-.5 2.3-2.9-.2-1.6-3.9-4-4.9-5-.5-.6 1.2-2.3 0-3.7-1.7-1.9-2-5.3-3-7.1 0 0 .8-1.2.2-2-2-2.2-5.9-3.4-10.3-3.7zm33.7 14.5L43 38l17.5-9.2-2-4.3zm-37.7.7H24v11.2h3.1v2.4h-9.5v-2.4h3v-8.8l-3.1.7v-2.4l3.2-.7zM62 38.3l-18.9 2.5L62 43.3v-5zm-19 5.1L58.5 57l2-4.2L43 43.4z"/></svg>
