<svg xmlns="http://www.w3.org/2000/svg" xml:space="preserve" viewBox="0 0 86.9 132"><path d="M29.3 0 9.5 86.4h20.3c1.6-4.1 5.2-7.1 9.5-7.9V66h-.1a2 2 0 1 1 0-3.8V49.3a2 2 0 1 1 0-3.8V32.8a2 2 0 1 1 0-3.9V16.2a2 2 0 1 1 0-3.8V8h4.4v4.4h.1a2 2 0 1 1 0 3.8v12.7a2 2 0 1 1 0 3.9v12.7a2 2 0 1 1 0 3.8v12.8a2 2 0 1 1 0 3.8v12.6h.2l19.8-34.3L53.7 0zm55.6 13.6a2 2 0 0 0-1.8 1l-2.8 4.8L78 18l-5 11 1.4.8-34.6 60a2 2 0 0 0 .8 2.7 2 2 0 0 0 1.2.2 2 2 0 0 0 1-.4 2 2 0 0 0 .3-.3 2 2 0 0 0 .2-.3l34.6-59.9 1.5.9 7-10-2.5-1.3 2.8-4.8a2 2 0 0 0-.7-2.8 2 2 0 0 0-1-.2zm-18.5 42-15.6 27c1 1 1.7 2.4 2.3 3.8h20.3zm-25 26.8a8.4 8.4 0 0 0-8.3 8.3 8.4 8.4 0 0 0 8.4 8.4 8.4 8.4 0 0 0 8.3-8.4 8.4 8.4 0 0 0-1.2-4.3l-3.7 6.3a4 4 0 0 1-5.4 1.5 4 4 0 0 1-1.5-5.5l3.7-6.3a8.4 8.4 0 0 0-.2 0zM7.6 95 0 128v4h8.3v-4h66.3v4H83v-4l-7.5-33H53a12.4 12.4 0 0 1-23.3 0z""/></svg>
