<svg xmlns="http://www.w3.org/2000/svg" xml:space="preserve" viewBox="0 0 89.4 153.8"><g><path d="M2.4 0H0a89.1 89.1 0 0 1 18.2 32.4c5.1 3.6 10.4 7.2 14.6 10.8l-13-6 4.4 14.1c7.6 4.9 15 10 22 16L26 56.6c6 16.7 15 34.4 38.2 53.8-3.1-33.7-15-68.8-41.5-92.1 25.2 14.3 43.2 52.7 47.6 121 .4-10 .3-19.3-.4-28.2a81.8 81.8 0 0 0-1.6-57.7c-.7 8-1.2 15.5-2.7 22-.2-8.7-.3-17.8.1-27.4C50.4 18.3 19 .8 2.4 0z"/><path d="M57.9 119.9c-.8 0-1.4.6-1.4 1.3v4.5c0 .8.6 1.4 1.4 1.4h2.5a.8.8 0 0 1 .7.8v2a.8.8 0 0 1-.7.8H56a4.5 4.5 0 0 0-4.5 4l-1.4 15a3.7 3.7 0 0 0 3.7 4.1h31.8c2.2 0 4-1.8 3.7-4l-1.4-15c-.2-2.3-2.1-4-4.4-4H79a.8.8 0 0 1-.8-.9v-2a.8.8 0 0 1 .8-.8h2.5c.7 0 1.4-.6 1.4-1.4v-4.5c0-.7-.7-1.3-1.4-1.3z"/></g></svg>
