<svg xmlns="http://www.w3.org/2000/svg" xml:space="preserve" viewBox="0 0 25 28.27"><path fill="#ffedd4" d="M12.5 0c-.24 0-.49.06-.7.19L.7 6.59c-.1.07-.1.18 0 .24l11.1 6.4c.43.26.97.26 1.4 0l11.1-6.4c.1-.06.1-.17 0-.24L13.2.19a1.41 1.41 0 0 0-.7-.19zm0 5.76a1.65.95 0 0 1 1.65.95 1.65.95 0 0 1-1.65.96 1.65.95 0 0 1-1.65-.96 1.65.95 0 0 1 1.65-.95zM.12 7.66l-.06.02A.16.16 0 0 0 0 7.8v12.8c0 .51.27.98.7 1.23l11.1 6.4c.1.07.2.01.2-.12v-12.8c0-.5-.26-.97-.7-1.23L.2 7.7a.19.19 0 0 0-.09-.03zm2.05 3.17a1.65.95 60 0 1 1.41 1.03 1.65.95 60 0 1 0 1.9 1.65.95 60 0 1-1.65-.94 1.65.95 60 0 1 0-1.91 1.65.95 60 0 1 .24-.08zm6.5 11.26a1.65.95 60 0 1 1.4 1.03 1.65.95 60 0 1 0 1.9 1.65.95 60 0 1-1.64-.95 1.65.95 60 0 1 0-1.9 1.65.95 60 0 1 .24-.08zM24.88 7.66a.19.19 0 0 0-.09.03L13.7 14.1c-.43.26-.7.72-.7 1.23v12.8c0 .13.1.19.2.12l11.1-6.4c.43-.25.7-.72.7-1.22V7.82c0-.07-.02-.12-.06-.14a.1.1 0 0 0-.06-.02zm-2.05 3.17a.95 1.65 30 0 1 .24.08.95 1.65 30 0 1 0 1.9.95 1.65 30 0 1-1.65.96.95 1.65 30 0 1 0-1.9.95 1.65 30 0 1 1.41-1.04zm-3.25 5.63a.95 1.65 30 0 1 .25.08.95 1.65 30 0 1 0 1.9.95 1.65 30 0 1-1.66.96.95 1.65 30 0 1 0-1.91.95 1.65 30 0 1 1.41-1.03zm-3.25 5.63a.95 1.65 30 0 1 .25.07.95 1.65 30 0 1 0 1.91.95 1.65 30 0 1-1.66.95.95 1.65 30 0 1 0-1.9.95 1.65 30 0 1 1.41-1.03z" paint-order="fill markers stroke"/></svg>
