<svg xmlns="http://www.w3.org/2000/svg" xml:space="preserve" viewBox="0 0 48 25"><path fill="#ffedd4" d="M48 0v24.75c-6.21-6.16-4.71-9.26-14.26-10.02A6.06 6.06 0 0 1 29.34 25H13.7a6.09 6.09 0 0 1-3.44-11.08c-1.53-.1-3.03-.22-4.44-.37a.96.96 0 0 1-.82.94l-3.56.52A1.26 1.26 0 0 1 0 13.76V11a1.26 1.26 0 0 1 1.44-1.25l3.56.52a.96.96 0 0 1 .82.94C14.8 10.28 27 10.35 32 10.13 43.48 9.6 41.44 6.5 48 0zM29.34 14.9H13.7a3.98 3.98 0 0 0-4.02 4.02 3.98 3.98 0 0 0 4.02 4.02h15.64a3.98 3.98 0 0 0 4.02-4.02 3.98 3.98 0 0 0-4.02-4.01z" paint-order="fill markers stroke"/></svg>
